<mxfile host="app.diagrams.net" agent="pan.baidu.com" version="26.0.10">
  <diagram name="第 1 页" id="_AMBf7fIdju6-525Ja5l">
    <mxGraphModel>
      <root>
        <mxCell id="0" />
        <mxCell id="1" parent="0" />
      </root>
    </mxGraphModel>
  </diagram>
</mxfile>
